<svg width="20" height="20" viewBox="0 0 20 20" fill="none" xmlns="http://www.w3.org/2000/svg">
<path fill-rule="evenodd" clip-rule="evenodd" d="M16.111 0.833252C17.7986 0.833252 19.1666 2.20127 19.1666 3.88881V16.111C19.1666 17.7986 17.7986 19.1666 16.111 19.1666H3.88881C2.20127 19.1666 0.833252 17.7986 0.833252 16.111V3.88881C0.833252 2.20127 2.20127 0.833252 3.88881 0.833252H16.111ZM5.92584 7.96288C5.36334 7.96288 4.90733 8.41887 4.90733 8.9814V14.074C4.90733 14.6365 5.36334 15.0925 5.92584 15.0925C6.48835 15.0925 6.94436 14.6365 6.94436 14.074V8.9814C6.94436 8.41887 6.48835 7.96288 5.92584 7.96288ZM8.9814 6.94436C8.41887 6.94436 7.96288 7.40037 7.96288 7.96288V14.074C7.96288 14.6365 8.41887 15.0925 8.9814 15.0925C9.54393 15.0925 9.99992 14.6365 9.99992 14.074V10.346C10.3105 9.99533 10.8358 9.58447 11.419 9.33503C11.758 9.18999 12.268 9.13204 12.6227 9.24357C12.7778 9.29235 12.8663 9.3609 12.921 9.43474C12.9741 9.50665 13.0555 9.66452 13.0555 9.99992V14.074C13.0555 14.6364 13.5115 15.0925 14.074 15.0925C14.6365 15.0925 15.0925 14.6364 15.0925 14.074V9.99992C15.0925 9.3167 14.9192 8.71068 14.5586 8.22321C14.1995 7.73786 13.7151 7.45169 13.2336 7.30032C12.3152 7.01152 11.2974 7.17144 10.6179 7.46215C10.4022 7.55437 10.1897 7.66176 9.98372 7.78085C9.89786 7.30519 9.4818 6.94436 8.9814 6.94436ZM5.92584 4.90733C5.36334 4.90733 4.90733 5.36334 4.90733 5.92584C4.90733 6.48835 5.36334 6.94436 5.92584 6.94436C6.48835 6.94436 6.94436 6.48835 6.94436 5.92584C6.94436 5.36334 6.48835 4.90733 5.92584 4.90733Z" fill="#0077B5"/>
</svg>
