<svg width="20" height="20" viewBox="0 0 20 20" fill="none" xmlns="http://www.w3.org/2000/svg">
<path d="M9.99992 19.1666C15.0625 19.1666 19.1666 15.0625 19.1666 9.99992C19.1666 4.93731 15.0625 0.833252 9.99992 0.833252C4.93731 0.833252 0.833252 4.93731 0.833252 9.99992C0.833252 13.6724 2.99285 16.8404 6.11134 18.3034L8.21077 8.43416C8.31609 7.93898 8.80293 7.62294 9.29812 7.72828C9.7933 7.83361 10.1093 8.3204 10.004 8.81559C9.75205 9.99992 9.53251 10.4583 9.54241 11.0082C9.5579 11.8699 9.79257 12.3297 10.0201 12.5684C10.2516 12.8112 10.587 12.9425 11.024 12.9344C11.4703 12.9263 11.9755 12.7689 12.4231 12.4872C13.2916 11.9408 13.6666 11.0037 13.6666 9.99992C13.6666 7.97487 12.0249 6.33325 9.99992 6.33325C7.97487 6.33325 6.33325 7.97487 6.33325 9.99992C6.33325 10.5231 6.44227 11.0183 6.63795 11.4662C6.84065 11.9301 6.62888 12.4705 6.16497 12.6733C5.70105 12.876 5.16066 12.6642 4.95797 12.2003C4.66306 11.5253 4.49992 10.7805 4.49992 9.99992C4.49992 6.96235 6.96235 4.49992 9.99992 4.49992C13.0375 4.49992 15.4999 6.96235 15.4999 9.99992C15.4999 10.78 15.3369 11.5244 15.0424 12.1991C14.7052 12.9761 14.089 13.6051 13.3995 14.0389C12.7082 14.4739 11.8813 14.7524 11.0576 14.7675C10.3073 14.7813 9.5249 14.5732 8.89543 14.0267L7.85571 18.9144C8.54352 19.0793 9.26154 19.1666 9.99992 19.1666Z" fill="#70757D"/>
</svg>
