<svg width="20" height="20" viewBox="0 0 20 20" fill="none" xmlns="http://www.w3.org/2000/svg">
<path fill-rule="evenodd" clip-rule="evenodd" d="M11.6666 1.66675C12.5871 1.66675 13.3333 2.41294 13.3333 3.33341C13.3333 4.53952 14.1916 5.55158 15.3319 5.78334C16.2339 5.96668 16.8165 6.84654 16.6332 7.74857C16.4498 8.65058 15.57 9.23325 14.6679 9.04992C14.2004 8.95483 13.753 8.80392 13.3333 8.60441V13.3334C13.3333 16.0948 11.0947 18.3334 8.33325 18.3334C5.57183 18.3334 3.33325 16.0948 3.33325 13.3334C3.33325 11.0013 4.92831 9.046 7.08449 8.491C7.97591 8.2616 8.88459 8.79825 9.114 9.68966C9.34342 10.5811 8.80675 11.4897 7.91535 11.7192C7.19614 11.9042 6.66659 12.5591 6.66659 13.3334C6.66659 14.2539 7.41278 15.0001 8.33325 15.0001C9.25375 15.0001 9.99992 14.2539 9.99992 13.3334V3.33341C9.99992 2.41294 10.7461 1.66675 11.6666 1.66675Z" fill="#70757D"/>
</svg>
