<?xml version="1.0" encoding="UTF-8"?> <svg xmlns="http://www.w3.org/2000/svg" width="132" height="129" viewBox="0 0 132 129" fill="none"><rect width="14.026" height="14.4139" rx="4" transform="matrix(0.233415 0.972377 -0.973011 0.230761 72.7266 111.702)" fill="#71ABEF"></rect><rect width="14.0953" height="14.3412" rx="4" transform="matrix(-0.468136 0.883656 -0.885979 -0.463726 132 7.31702)" fill="#F8D683"></rect><rect width="14.4521" height="14.0034" rx="4" transform="matrix(1 0 0.00843759 0.999964 0 16.6666)" fill="#F4A07C"></rect><path d="M8.01872 42.3759C3.17297 49.2086 -0.27706 60.9736 12.7001 62.3037C24.7114 62.2749 35.9794 57.1699 33.3711 51.4571C31.8919 49.653 28.9052 47.3292 23.2237 53.6949C20.057 58.9346 16.3018 69.9983 32.1821 71.1075C54.2773 73.5709 50.733 60.7283 70.8 72.0231" stroke="#F4A07C" stroke-width="2" stroke-linecap="round"></path></svg> 