<?xml version="1.0" encoding="UTF-8"?> <svg xmlns="http://www.w3.org/2000/svg" width="133" height="129" viewBox="0 0 133 129" fill="none"><path d="M61.8823 79.3742C59.1658 84.4043 52.6143 93.0107 48.1404 87.1959C45.7436 84.0809 43.407 79.1907 40.5636 87.1447L38.8792 92.8983C37.6944 96.2123 35.7656 93.7763 35.0127 89.55C33.6953 82.154 28.3277 79.7141 23.0991 83.509C18.7752 86.5088 9.51666 94.0089 7.07305 100.011" stroke="#8C80F6" stroke-width="2" stroke-linecap="round"></path><rect width="13.9124" height="13.9069" rx="4" transform="matrix(0.429535 -0.905358 0.898763 0.433658 68.9102 77.9908)" fill="#AC9BF6"></rect><rect width="13.9627" height="13.9154" rx="4" transform="matrix(-0.497954 0.867203 -0.864839 -0.502048 132.002 116.557)" fill="#60C0A4"></rect><rect width="13.9812" height="13.8969" rx="4" transform="matrix(0.230889 0.97298 -0.972408 0.233286 98.9395 0.666626)" fill="#F892BC"></rect></svg> 