<svg width="20" height="20" viewBox="0 0 20 20" fill="none" xmlns="http://www.w3.org/2000/svg">
<path fill-rule="evenodd" clip-rule="evenodd" d="M9.99992 2.5C10.7841 2.5 11.5872 2.52102 12.3664 2.55416L13.2872 2.59917L14.1684 2.65241L14.9935 2.71045L15.746 2.76988C17.4309 2.90971 18.7849 4.24321 18.9496 5.97915L18.9861 6.37715L19.0548 7.23022C19.1191 8.1145 19.1666 9.07875 19.1666 10C19.1666 10.9213 19.1191 11.8855 19.0548 12.7698L18.9861 13.6228C18.9741 13.7591 18.9619 13.8919 18.9496 14.0208C18.7849 15.7568 17.4309 17.0903 15.746 17.2301L14.9935 17.2895L14.1684 17.3476L13.2872 17.4008L12.3664 17.4458C11.5872 17.479 10.7841 17.5 9.99992 17.5C9.21579 17.5 8.4126 17.479 7.6334 17.4458L6.71262 17.4008L5.83141 17.3476L5.00629 17.2895L4.25379 17.2301C2.56897 17.0903 1.21495 15.7568 1.05021 14.0208L1.01376 13.6228L0.945015 12.7698C0.880731 11.8855 0.833252 10.9213 0.833252 10C0.833252 9.07875 0.880731 8.1145 0.945015 7.23022L1.01376 6.37715C1.02578 6.24093 1.03797 6.10808 1.05021 5.97915C1.21495 4.24321 2.56897 2.90971 4.25379 2.76988L5.00629 2.71045L5.83141 2.65241L6.71262 2.59917L7.63339 2.55416C8.4126 2.52102 9.21579 2.5 9.99992 2.5ZM8.16658 7.72668V12.2733C8.16658 12.7064 8.62492 12.9769 8.99158 12.7605L12.8416 10.4871C13.2083 10.2707 13.2083 9.72934 12.8416 9.51288L8.99158 7.23954C8.62492 7.02303 8.16658 7.29367 8.16658 7.72668Z" fill="#FF0000"/>
</svg>
