<svg width="20" height="20" viewBox="0 0 20 20" fill="none" xmlns="http://www.w3.org/2000/svg">
<path d="M14.074 0.833252C16.8865 0.833252 19.1666 3.11329 19.1666 5.92584V14.074C19.1666 16.8865 16.8865 19.1666 14.074 19.1666H5.92584C3.11329 19.1666 0.833252 16.8865 0.833252 14.074V5.92584C0.833252 3.11329 3.11329 0.833252 5.92584 0.833252H14.074ZM9.99992 5.92584C7.74987 5.92584 5.92584 7.74987 5.92584 9.99992C5.92584 12.2499 7.74987 14.074 9.99992 14.074C12.2499 14.074 14.074 12.2499 14.074 9.99992C14.074 7.74987 12.2499 5.92584 9.99992 5.92584ZM9.99992 7.96288C11.125 7.96288 12.037 8.87486 12.037 9.99992C12.037 11.125 11.125 12.037 9.99992 12.037C8.87486 12.037 7.96288 11.125 7.96288 9.99992C7.96288 8.87486 8.87486 7.96288 9.99992 7.96288ZM14.5833 4.39807C14.0207 4.39807 13.5647 4.85408 13.5647 5.41658C13.5647 5.97909 14.0207 6.4351 14.5833 6.4351C15.1458 6.4351 15.6018 5.97909 15.6018 5.41658C15.6018 4.85408 15.1458 4.39807 14.5833 4.39807Z" fill="url(#paint0_linear_17494_208529)"/>
<defs>
<linearGradient id="paint0_linear_17494_208529" x1="9.99992" y1="0.833252" x2="9.99992" y2="19.1666" gradientUnits="userSpaceOnUse">
<stop stop-color="#4F5BD5"/>
<stop offset="0.276042" stop-color="#962FBF"/>
<stop offset="0.541667" stop-color="#D62976"/>
<stop offset="0.770833" stop-color="#FA7E1E"/>
<stop offset="1" stop-color="#EA723C" stop-opacity="0"/>
<stop offset="1" stop-color="#FEDA75"/>
</linearGradient>
</defs>
</svg>
