<?xml version="1.0" encoding="utf-8"?>
<!-- Generator: Adobe Illustrator 26.0.2, SVG Export Plug-In . SVG Version: 6.00 Build 0)  -->
<svg version="1.1" id="Layer_1" xmlns="http://www.w3.org/2000/svg" xmlns:xlink="http://www.w3.org/1999/xlink" x="0px" y="0px"
	 viewBox="0 0 89.2215 12.427" style="enable-background:new 0 0 89.2215 12.427;" xml:space="preserve">
<style type="text/css">
	.st0{fill:#FF5E44;}
	.st1{fill:#A7A9AC;}
	.st2{fill:#FFFFFF;}
	.st3{fill:#4A4A4A;}
	.st4{opacity:0.3;fill:#C283B9;}
	.st5{opacity:0.3;fill:#FBB040;}
	.st6{fill:#FBB040;}
	.st7{fill:#77BFD6;}
	.st8{fill:#C283B9;}
	.st9{fill:none;stroke:#BCBEC0;stroke-width:0.25;stroke-miterlimit:10;}
	.st10{fill:none;stroke:#BCBEC0;stroke-width:0.25;stroke-miterlimit:10;stroke-dasharray:1.04699,1.04699;}
	.st11{fill:none;stroke:#BCBEC0;stroke-width:0.25;stroke-miterlimit:10;stroke-dasharray:1.01207,1.01207;}
</style>
<g>
	<path class="st0" d="M0.94012,3.96503L0.76691,2.92578H0v6.84137h1.08252V6.04956c0-0.66803,0.1709-1.19171,0.51331-1.57123
		C1.93817,4.09912,2.41858,3.9093,3.03705,3.9093h0.69904V2.88861h-0.6062C2.16504,2.88861,1.43506,3.2475,0.94012,3.96503z"/>
	<path class="st0" d="M9.59982,3.25989c-0.52814-0.32178-1.12994-0.4826-1.80634-0.4826c-0.65161,0-1.24438,0.15472-1.77838,0.46393
		C5.48117,3.5506,5.06247,3.97845,4.75937,4.52478C4.45626,5.07129,4.3049,5.67847,4.3049,6.34656
		c0,0.67212,0.15137,1.28033,0.45447,1.82465c0.3031,0.54449,0.7218,0.97113,1.25574,1.28052
		c0.534,0.30933,1.12677,0.46393,1.77838,0.46393c0.74219,0,1.39899-0.1958,1.97028-0.58771
		c0.49628-0.34052,0.88116-0.80676,1.16742-1.38416H9.72165c-0.1875,0.2417-0.40222,0.45453-0.67242,0.60797
		C8.68209,8.75995,8.2637,8.86401,7.79348,8.86401c-0.64343,0-1.18469-0.19171-1.62378-0.5752
		C5.73068,7.90521,5.46975,7.396,5.38742,6.76086h5.83295c0.01227-0.1319,0.01868-0.2597,0.01868-0.38348
		c0-0.66382-0.14154-1.26898-0.42395-1.81549C10.53268,4.01556,10.12741,3.58142,9.59982,3.25989z M5.41214,5.76495
		c0.11121-0.5979,0.3811-1.07526,0.8103-1.43188c0.42883-0.35669,0.95233-0.53516,1.57104-0.53516
		c0.61029,0,1.12885,0.17627,1.55566,0.52887s0.69788,0.83197,0.81348,1.43817H5.41214z"/>
	<path class="st0" d="M16.80147,6.07428c-0.29291-0.12372-0.7774-0.24121-1.45374-0.35254
		c-0.1936-0.02887-0.34412-0.05359-0.45129-0.07428c-0.10742-0.02051-0.2373-0.0495-0.38983-0.08661
		c-0.15259-0.03711-0.27228-0.07819-0.3587-0.12372c-0.08679-0.04529-0.17328-0.10089-0.2597-0.16699
		c-0.08679-0.06598-0.1485-0.14526-0.18579-0.23816c-0.03699-0.09271-0.0556-0.19684-0.0556-0.31226
		c0-0.297,0.13599-0.53516,0.4082-0.71454c0.27222-0.17932,0.6391-0.26898,1.10114-0.26898
		c0.48248,0,0.86182,0.09998,1.13812,0.29987c0.27631,0.2002,0.4248,0.48566,0.4455,0.85675h1.02051
		c-0.02069-0.6474-0.26294-1.16187-0.72675-1.54327c-0.46411-0.38141-1.08167-0.57227-1.8526-0.57227
		c-0.7713,0-1.39404,0.18256-1.86804,0.54749c-0.4743,0.36499-0.7113,0.84235-0.7113,1.43195
		c0,0.15271,0.01105,0.29492,0.03375,0.42682c0.02271,0.13202,0.06085,0.25055,0.11444,0.35577
		c0.05359,0.1051,0.10828,0.20105,0.16388,0.28754c0.05591,0.08661,0.13104,0.16608,0.22595,0.23816
		c0.09491,0.0722,0.18024,0.13507,0.25684,0.18866c0.07599,0.05371,0.17816,0.10321,0.30597,0.1485
		c0.12781,0.04541,0.23529,0.08252,0.32172,0.11133c0.08649,0.02887,0.20294,0.05988,0.34943,0.09277
		c0.14642,0.03302,0.26202,0.0578,0.34644,0.07422c0.08447,0.0166,0.20325,0.03711,0.35583,0.06189
		c0.1936,0.03302,0.34735,0.06085,0.46057,0.08356c0.11359,0.02271,0.24951,0.05457,0.40851,0.09576
		c0.15869,0.04138,0.28327,0.08765,0.37415,0.13922c0.09052,0.05164,0.1814,0.11353,0.27222,0.18561
		c0.09058,0.0722,0.15662,0.15985,0.198,0.26288c0.04102,0.10309,0.06171,0.21869,0.06171,0.34631
		c0,0.33008-0.14935,0.5899-0.44836,0.77948c-0.29901,0.18964-0.68567,0.28461-1.15997,0.28461
		c-0.4906,0-0.89178-0.10919-1.20306-0.32788c-0.26691-0.18719-0.40833-0.45325-0.46765-0.77063h-1.0741
		c0.05951,0.61536,0.3064,1.11517,0.7594,1.48822c0.4906,0.40411,1.1402,0.60614,1.94843,0.60614
		c0.81641,0,1.47211-0.19171,1.96704-0.57532c0.49469-0.38342,0.74219-0.89471,0.74219-1.53406
		c0-0.07819-0.00409-0.15668-0.01227-0.23499C17.84468,6.85779,17.4778,6.35889,16.80147,6.07428z"/>
	<path class="st0" d="M24.6277,6.70526c0,0.66803-0.17407,1.1969-0.52258,1.58661S23.27938,8.8764,22.67318,8.8764
		c-0.60211,0-1.07843-0.19379-1.42896-0.58148C20.89363,7.90741,20.7184,7.3775,20.7184,6.70526V2.92578h-1.07611v3.9527
		c0,0.91962,0.27515,1.65564,0.82568,2.20825c0.5506,0.55261,1.28546,0.82892,2.2052,0.82892
		c0.92358,0,1.65961-0.27631,2.20813-0.82892s0.82281-1.28864,0.82281-2.20825v-3.9527H24.6277V6.70526z"/>
	<path class="st0" d="M60.97715,3.2782c-1.16559-0.74762-2.77771-0.72406-3.92108,0.05719
		c-0.005,0.00348-0.01001,0.0069-0.01495,0.01031c-0.99762,0.68994-1.58209,1.9209-1.52405,3.12799
		c0.05981,1.24268,0.67303,2.38812,1.7724,3.02277c0.91443,0.52783,2.06836,0.61963,3.05475,0.24298
		c0.88373-0.33746,1.59937-1.0531,1.97913-1.91815h-2.08032c-0.39954,0.38715-0.97931,0.58966-1.52655,0.47528
		c-0.68036-0.14215-1.24005-0.74194-1.3349-1.43048l2.60803-0.00012V6.85864h1.6601
		c0.57605-0.02014,1.00525-0.53809,0.91266-1.11243C62.40226,4.75317,61.82621,3.82275,60.97715,3.2782z M60.53257,5.60425h-3.09399
		c0.10718-0.40833,0.3031-0.72583,0.58759-0.9527c0.28442-0.22662,0.63092-0.34021,1.03912-0.34021
		c0.41663,0,0.77008,0.11139,1.06097,0.33411c0.23682,0.18146,0.41968,0.42737,0.5484,0.73761
		C60.71812,5.48779,60.64591,5.60425,60.53257,5.60425z"/>
	<path class="st0" d="M34.99667,2.77728c-0.47021,0-0.91046,0.1156-1.32068,0.34644
		c-0.41028,0.23108-0.74335,0.54858-0.99896,0.95251C32.48312,3.6723,32.20474,3.3548,31.842,3.12372
		c-0.3631-0.23083-0.78351-0.34644-1.2619-0.34644c-0.42883,0-0.83618,0.09595-1.22168,0.28766
		c-0.3858,0.19171-0.71039,0.45886-0.97418,0.80109l-0.17328-0.94025h-0.77942v6.84137h1.08252V5.97534
		c0-0.62268,0.17822-1.14746,0.53516-1.57428c0.35669-0.42688,0.78644-0.64026,1.28955-0.64026
		c0.49493,0,0.87842,0.17322,1.15063,0.51971c0.27222,0.34631,0.4082,0.82874,0.4082,1.44745v4.03918h1.05164V5.97534
		c0-0.62268,0.17816-1.14746,0.53516-1.57428c0.35638-0.42688,0.78638-0.64026,1.28949-0.64026
		c0.48657,0,0.86621,0.17322,1.13812,0.51971c0.27228,0.34631,0.40851,0.82874,0.40851,1.44745l0.0061,4.03918h1.07001V5.39386
		c0-0.77112-0.2207-1.40002-0.6618-1.88666C36.29348,3.02069,35.71432,2.77728,34.99667,2.77728z"/>
	<path class="st0" d="M44.06837,3.25989c-0.52814-0.32178-1.12994-0.4826-1.80627-0.4826
		c-0.65161,0-1.24445,0.15472-1.77838,0.46393c-0.534,0.30939-0.9527,0.73724-1.2558,1.28357
		c-0.30304,0.54651-0.45447,1.15369-0.45447,1.82178c0,0.67212,0.15143,1.28033,0.45447,1.82465
		c0.3031,0.54449,0.7218,0.97113,1.2558,1.28052c0.53394,0.30933,1.12677,0.46393,1.77838,0.46393
		c0.74213,0,1.39899-0.1958,1.97021-0.58771c0.53137-0.36456,0.93719-0.87073,1.22772-1.50665h-1.17615
		c-0.20276,0.29962-0.45056,0.55127-0.76605,0.73047c-0.36719,0.20819-0.78552,0.31226-1.25574,0.31226
		c-0.64349,0-1.18475-0.19171-1.62378-0.5752c-0.43909-0.38361-0.69995-0.89282-0.78235-1.52795h5.83301
		c0.01221-0.1319,0.01862-0.2597,0.01862-0.38348c0-0.66382-0.14148-1.26898-0.42389-1.81549
		C45.00123,4.01556,44.59595,3.58142,44.06837,3.25989z M39.88068,5.76495c0.11127-0.5979,0.38116-1.07526,0.8103-1.43188
		c0.42889-0.35669,0.95239-0.53516,1.57111-0.53516c0.61023,0,1.12878,0.17627,1.5556,0.52887s0.69794,0.83197,0.81348,1.43817
		H39.88068z"/>
	<path class="st0" d="M52.6386,3.6062c-0.62683-0.58142-1.38354-0.87219-2.27014-0.87219c-0.62683,0-1.20099,0.15259-1.72247,0.4577
		c-0.52173,0.3053-0.93225,0.72064-1.23096,1.24646c-0.29907,0.52582-0.44867,1.10217-0.44867,1.72888
		c0,0.63092,0.1496,1.20929,0.44867,1.73511c0.29871,0.52582,0.70923,0.93927,1.23096,1.24017
		c0.52148,0.30121,1.09564,0.4516,1.72247,0.4516c0.7218,0,1.37341-0.2041,1.95483-0.6123v0.2597
		c0,0.48669-0.1651,0.87537-0.49493,1.16608c-0.3299,0.29071-0.73608,0.43604-1.21851,0.43604
		c-0.3631,0-0.69794-0.08142-1.00507-0.24426c-0.12469-0.0661-0.22406-0.14801-0.31299-0.23633h-2.00317
		c0.19928,0.57135,0.53857,1.04047,1.03247,1.39612c0.61871,0.44531,1.39172,0.66803,2.31964,0.66803
		c1.08453,0,1.93817-0.30829,2.56097-0.92468c0.6225-0.61652,0.93402-1.45898,0.93402-2.52692V2.92578h-0.4577
		C53.2271,2.92578,52.81896,3.19293,52.6386,3.6062z M51.83471,7.43823c-0.33014,0.33612-0.74652,0.50415-1.24963,0.50415
		c-0.50714,0-0.92468-0.16803-1.2525-0.50415c-0.32788-0.336-0.49176-0.75977-0.49176-1.27118
		c0-0.5072,0.16479-0.92676,0.49463-1.25867c0.3299-0.33191,0.74652-0.49805,1.24963-0.49805
		c0.5072,0,0.92474,0.16614,1.25256,0.49805c0.32788,0.33191,0.49176,0.75146,0.49176,1.25867
		C52.3294,6.67847,52.1646,7.10223,51.83471,7.43823z"/>
	<path class="st0" d="M67.84276,2.76489c-0.4577,0-0.88367,0.08984-1.27728,0.26917
		c-0.39392,0.17938-0.72296,0.42584-0.98676,0.73914l-0.0658-0.15546c-0.17755-0.41943-0.58881-0.69196-1.04431-0.69196h-0.51685
		v6.84137h1.84974V6.17328c0-0.55261,0.13684-0.98859,0.41138-1.30829c0.27399-0.31952,0.64838-0.47937,1.12268-0.47937
		c0.79572,0,1.19373,0.51141,1.19373,1.53406v3.84747h1.84943V5.62274c0-0.87-0.22882-1.56396-0.68652-2.08148
		S68.61784,2.76489,67.84276,2.76489z"/>
	<circle class="st0" cx="72.97643" cy="1.00629" r="1.00629"/>
	<path class="st0" d="M72.83999,2.93665h-0.71564v6.84143h1.84973V4.07074C73.97408,3.4444,73.46633,2.93665,72.83999,2.93665z"/>
	<path class="st0" d="M80.28513,4.05981v2.60828c0,0.48248-0.11963,0.862-0.3587,1.13818
		C79.6871,8.0827,79.35312,8.2207,78.92429,8.2207c-0.42889,0-0.76489-0.13696-1.0083-0.41125s-0.36481-0.65466-0.36481-1.14136
		V2.92578h-1.84967v3.9527c0,0.92383,0.29608,1.66803,0.8877,2.23303c0.59161,0.56494,1.37018,0.84741,2.33508,0.84741
		c0.96893,0,1.74634-0.28247,2.33215-0.84741c0.58551-0.565,0.87842-1.3092,0.87842-2.23303v-3.9527h-0.71564
		C80.79288,2.92578,80.28513,3.43347,80.28513,4.05981z"/>
	<path class="st0" d="M88.1142,5.92584c-0.2926-0.12769-0.77094-0.2514-1.43481-0.37109
		c-0.15692-0.02881-0.27338-0.05054-0.34967-0.06494s-0.17529-0.03711-0.297-0.06812
		c-0.12164-0.03088-0.21222-0.06189-0.27191-0.09271c-0.06-0.03101-0.12372-0.06818-0.19189-0.11139
		c-0.06812-0.04321-0.11554-0.09479-0.14233-0.1546s-0.04022-0.12683-0.04022-0.20105c0-0.198,0.08154-0.35669,0.24432-0.47632
		c0.16302-0.11951,0.38666-0.17938,0.67139-0.17938c0.3255,0,0.57825,0.06799,0.75757,0.2041
		c0.05981,0.04541,0.10986,0.09808,0.15015,0.15814c0.20245,0.30133,0.5705,0.44806,0.93353,0.44806h0.9483
		c-0.00409-0.68451-0.25562-1.23608-0.75464-1.6546c-0.49908-0.41858-1.16089-0.62793-1.98541-0.62793
		c-0.87097,0-1.56519,0.22888-2.08307,0.68604c-0.45197,0.39899-0.68549,0.97284-0.66882,1.5755
		c0.00537,0.19489,0.03302,0.37518,0.08258,0.54059c0.0556,0.18561,0.12579,0.34338,0.21021,0.47327
		c0.08472,0.12982,0.198,0.24847,0.34039,0.35565c0.14233,0.10724,0.27716,0.19287,0.40527,0.25665
		c0.1275,0.06403,0.28534,0.12286,0.47314,0.17627c0.1875,0.05371,0.34729,0.09387,0.47919,0.12067
		c0.1319,0.02698,0.29498,0.05682,0.48889,0.08972c0.21429,0.03711,0.38751,0.07117,0.51941,0.10205
		c0.1319,0.03101,0.26611,0.07422,0.4021,0.12994c0.13623,0.05566,0.23608,0.12482,0.30017,0.20721
		c0.06378,0.08252,0.09576,0.17932,0.09576,0.29071c0,0.21863-0.09375,0.38763-0.28156,0.5072
		c-0.1875,0.11963-0.41748,0.17944-0.6897,0.17944c-0.3421,0-0.61755-0.07831-0.82574-0.23511
		c-0.12622-0.09491-0.20209-0.22351-0.25336-0.36853h-1.83478c0.06854,0.59125,0.31543,1.08447,0.76453,1.46649
		c0.52582,0.44751,1.21735,0.67114,2.07538,0.67114c0.86591,0,1.56061-0.20923,2.08435-0.62787
		c0.5238-0.4184,0.78558-0.97626,0.78558-1.67316C89.2215,6.83307,88.85261,6.25586,88.1142,5.92584z"/>
</g>
</svg>
